General

Format                           : MPEG-4
Format profile                   : Base Media
Codec ID                         : isom
File size                        : 62.0 MiB
Duration                         : 6mn 1s
Overall bit rate                 : 1 440 Kbps
Encoded date                     : UTC 2012-04-15 22:30:04
Tagged date                      : UTC 2012-04-15 22:30:04

Video
ID                               : 1
Format                           : AVC
Format/Info                      : Advanced Video Codec
Format profile                   : High@L3.0
Format settings, CABAC           : Yes
Format settings, ReFrames        : 2 frames
Codec ID                         : avc1
Codec ID/Info                    : Advanced Video Coding
Duration                         : 6mn 1s
Bit rate mode                    : Variable
Bit rate                         : 1 348 Kbps
Maximum bit rate                 : 4 845 Kbps
Width                            : 720 pixels
Height                           : 480 pixels
Display aspect ratio             : 4:3
Original display aspect ratio    : 4:3
Frame rate mode                  : Constant
Frame rate                       : 29.970 fps
Standard                         : NTSC
Color space                      : YUV
Chroma subsampling               : 4:2:0
Bit depth                        : 8 bits
Scan type                        : Progressive
Bits/(Pixel*Frame)               : 0.130
Stream size                      : 58.2 MiB (94%)


Audio
ID                               : 2
Format                           : AAC
Format/Info                      : Advanced Audio Codec
Format profile                   : LC
Codec ID                         : 40
Duration                         : 6mn 1s
Bit rate mode                    : Variable
Bit rate                         : 81.0 Kbps
Maximum bit rate                 : 88.3 Kbps
Channel(s)                       : 2 channels
Channel positions                : Front: L R
Sampling rate                    : 48.0 KHz
Compression mode                 : Lossy
Stream size                      : 3.48 MiB (6%)